<svg height="496pt" viewBox="0 -40 496 496" width="496pt" xmlns="http://www.w3.org/2000/svg"><path d="m208 408-16-88 15.761719-30.0625-31.761719-17.9375-31.761719 17.9375 15.761719 30.0625-16 88zm0 0" fill="#f0bc5e"/><path d="m321.695312 250.175781-97.695312-24.421875v-17.753906h-16v20.6875l-32 32-32-32v-20.6875h-16v17.753906l-97.695312 24.421875c-17.839844 4.464844-30.304688 20.417969-30.304688 38.808594v127.015625h352v-127.015625c0-18.390625-12.464844-34.34375-30.304688-38.808594zm-103.246093-9.3125 11.292969 2.824219-8.839844 48.640625-32.351563-21.566406zm-84.898438 0 29.898438 29.898438-32.351563 21.566406-8.839844-48.640625zm-69.550781 159.136719v-96h-16v96h-32v-111.015625c0-11.03125 7.480469-20.609375 18.175781-23.289063l72.527344-18.128906 27.710937 152.433594zm86.671875 0-16.457031-90.527344 41.785156-27.855468 41.785156 27.855468-16.457031 90.527344zm185.328125 0h-32v-96h-16v96h-70.414062l27.710937-152.433594 72.527344 18.128906c10.695312 2.679688 18.175781 12.257813 18.175781 23.289063zm0 0"/><path d="m176 224c-61.761719 0-112-50.238281-112-112s50.238281-112 112-112 112 50.238281 112 112-50.238281 112-112 112zm0-184c-39.703125 0-72 32.296875-72 72s32.296875 72 72 72 72-32.296875 72-72-32.296875-72-72-72zm0 0" fill="#f0bc5e"/><path d="m176 192c-44.113281 0-80-35.886719-80-80 0-20.328125 7.695312-39.734375 21.671875-54.648438l11.671875 10.9375c-11.175781 11.933594-17.34375 27.464844-17.34375 43.710938 0 35.289062 28.710938 64 64 64 16.238281 0 31.769531-6.167969 43.710938-17.34375l10.9375 11.671875c-14.921876 13.976563-34.328126 21.671875-54.648438 21.671875zm0 0"/><path d="m242.273438 156.824219-13.25-8.96875c7.175781-10.609375 10.976562-23 10.976562-35.855469 0-35.289062-28.710938-64-64-64-12.855469 0-25.246094 3.800781-35.847656 10.976562l-8.96875-13.25c13.25-8.972656 28.746094-13.726562 44.816406-13.726562 44.113281 0 80 35.886719 80 80 0 16.070312-4.753906 31.566406-13.726562 44.824219zm0 0"/><path d="m456 72h-136v16h-40v16h40v16h-40v16h40v16h136c22.054688 0 40-17.945312 40-40s-17.945312-40-40-40zm-120 16h16v48h-16zm120 48h-88v-48h88c13.230469 0 24 10.769531 24 24s-10.769531 24-24 24zm0 0"/><path d="m448 104h16v16h-16zm0 0"/></svg>