<?xml version="1.0" encoding="iso-8859-1"?>
<!-- Generator: Adobe Illustrator 16.0.0, SVG Export Plug-In . SVG Version: 6.00 Build 0)  -->
<!DOCTYPE svg PUBLIC "-//W3C//DTD SVG 1.1//EN" "http://www.w3.org/Graphics/SVG/1.1/DTD/svg11.dtd">
<svg version="1.1" id="Capa_1" xmlns="http://www.w3.org/2000/svg" xmlns:xlink="http://www.w3.org/1999/xlink" x="0px" y="0px"
	 width="210.13px" height="210.13px" viewBox="0 0 210.13 210.13" style="enable-background:new 0 0 210.13 210.13;"
	 xml:space="preserve">
<g>
	<g>
		<path d="M105.06,69.653c19.202,0,34.839-15.625,34.839-34.823C139.898,15.618,124.262,0,105.06,0
			C85.854,0,70.235,15.618,70.235,34.83C70.235,54.029,85.854,69.653,105.06,69.653z M92.552,55.64
			c1.708-0.795,3.505-1.431,5.325-1.885c0.53,3.742,1.276,7.341,2.332,10.108C97.271,62.328,94.641,59.442,92.552,55.64z
			 M96.711,37.399c0.055,2.898,0.229,7.608,0.722,12.522c-2.25,0.515-4.445,1.257-6.546,2.216c-1.748-4.275-2.886-9.319-3.16-14.739
			H96.711z M87.732,32.242c0.274-5.404,1.413-10.461,3.16-14.733c2.101,0.965,4.29,1.708,6.546,2.219
			c-0.49,4.92-0.667,9.627-0.722,12.514H87.732z M105.458,64.475c-0.137,0-0.262,0.019-0.398,0.019c-0.131,0-0.25-0.019-0.387-0.019
			c-0.953-1.559-2.102-5.456-2.957-11.38c1.105-0.125,2.226-0.207,3.344-0.207c1.129,0,2.237,0.088,3.346,0.207
			C107.559,59.019,106.408,62.916,105.458,64.475z M118.817,61.096c0.816-1.111,1.559-2.308,2.26-3.593
			c0.565,0.353,1.102,0.728,1.638,1.114C121.484,59.537,120.182,60.377,118.817,61.096z M113.423,37.399h8.976
			c-0.263,5.474-1.364,10.519-3.081,14.778c-2.132-0.98-4.348-1.727-6.625-2.256C113.197,45.008,113.361,40.298,113.423,37.399z
			 M112.698,19.729c2.271-0.523,4.493-1.267,6.619-2.25c1.723,4.263,2.825,9.302,3.087,14.764h-8.981
			C113.361,29.355,113.197,24.655,112.698,19.729z M125.741,13.6c4.95,4.826,8.227,11.366,8.854,18.643h-8.336
			c-0.262-6.153-1.486-11.816-3.483-16.59C123.799,15.028,124.785,14.337,125.741,13.6z M126.259,37.399h8.336
			c-0.627,7.289-3.903,13.825-8.854,18.651c-0.956-0.731-1.942-1.422-2.966-2.046C124.772,49.228,125.997,43.564,126.259,37.399z
			 M122.715,11.042c-0.536,0.387-1.072,0.761-1.638,1.118c-0.701-1.291-1.443-2.488-2.26-3.587
			C120.182,9.286,121.484,10.12,122.715,11.042z M117.667,13.986c-1.748,0.804-3.562,1.453-5.432,1.915
			c-0.53-3.769-1.272-7.389-2.345-10.166C112.899,7.246,115.572,10.132,117.667,13.986z M112.235,53.761
			c1.869,0.46,3.684,1.111,5.432,1.915c-2.101,3.852-4.768,6.735-7.776,8.254C110.963,61.15,111.705,57.527,112.235,53.761z
			 M104.673,5.182c0.137,0,0.262-0.019,0.387-0.019c0.137,0,0.262,0.019,0.398,0.019c0.938,1.553,2.101,5.456,2.947,11.375
			c-1.108,0.131-2.217,0.21-3.346,0.21c-1.118,0-2.238-0.085-3.344-0.21C102.571,10.638,103.714,6.734,104.673,5.182z
			 M101.25,20.401c1.258,0.137,2.536,0.237,3.81,0.237c1.287,0,2.566-0.1,3.82-0.237c0.365,3.443,0.597,7.408,0.67,11.841h-8.976
			C100.65,27.809,100.888,23.845,101.25,20.401z M109.556,37.399c-0.079,4.439-0.311,8.412-0.67,11.853
			c-1.26-0.137-2.539-0.244-3.82-0.244c-1.272,0-2.552,0.107-3.809,0.244c-0.362-3.446-0.6-7.414-0.667-11.853H109.556z
			 M100.215,5.794c-1.053,2.761-1.802,6.366-2.333,10.102c-1.826-0.444-3.617-1.093-5.325-1.878
			C94.641,10.221,97.271,7.328,100.215,5.794z M91.31,8.567c-0.815,1.099-1.559,2.295-2.256,3.586
			c-0.569-0.362-1.105-0.731-1.635-1.118C88.649,10.12,89.946,9.286,91.31,8.567z M89.054,57.503
			c0.697,1.285,1.44,2.481,2.256,3.593c-1.364-0.719-2.661-1.559-3.891-2.479C87.949,58.23,88.484,57.856,89.054,57.503z
			 M84.377,13.6c0.965,0.737,1.952,1.428,2.98,2.053c-1.991,4.773-3.218,10.437-3.498,16.59h-8.324
			C76.157,24.965,79.427,18.426,84.377,13.6z M83.86,37.399c0.28,6.159,1.501,11.828,3.498,16.605
			c-1.023,0.63-2.009,1.315-2.98,2.046c-4.951-4.826-8.211-11.362-8.841-18.651H83.86z"/>
		<path d="M203.725,149.891l-10.211-63.346l-0.628-3.876l-3.806,0.972l-36.291,9.265c-3.026-0.043-16.288-7.943-23.407-12.203
			c-10.54-6.302-14.157-8.33-16.556-8.33c-2.85,0-11.558,4.085-18.94,8.899c-1.279-1.087-2.262-1.714-2.905-1.623
			c-7.663,1.224-30.348,19.574-34.9,18.432c-4.54-1.133-40.554-10.495-40.554-10.495L5.888,149.72c0,0,26.037,6.973,37.18,9.95
			l-3.312,4.847c-1.65,2.351-1.732,5.407-0.204,8.354c2.32,4.457,7.657,7.672,12.681,7.672c0.457,0,0.917-0.024,1.367-0.085
			c0.381,1.267,0.996,2.484,1.851,3.642c2.801,3.812,7.983,6.369,12.857,6.369c0.667,0,1.321-0.049,1.964-0.134
			c0.505,1.485,1.309,2.916,2.426,4.238c3.124,3.714,8.05,6.021,12.857,6.021c0.459,0,0.91-0.024,1.358-0.073
			c0.426,1.626,1.19,3.161,2.295,4.536c2.536,3.143,6.546,5.072,10.461,5.072c3.224,0,5.989-1.369,7.608-3.756
			c1.699-2.51,4.884-8.038,7.946-13.391c0.664-1.176,1.315-2.326,1.949-3.428c4.311,1.838,6.996,2.989,6.996,2.989
			c9.347,3.696,14.182-10.218,9.828-13.987l6.516,2.314c9.565,3.824,18.078-7.897,10.564-15.107c3.593,1.613,6.93,0.834,9.462-1.096
			l-0.023,0.03l8.366-1.717l32.284-9.062l3.075-0.864L203.725,149.891z M116.979,182.809c-3.203,5.31-10.035,17.671-12.662,21.556
			c-1.023,1.51-2.731,2.186-4.646,2.186c-4.774,0-10.699-4.329-9.32-10.76c-1.461,0.841-3.111,1.206-4.795,1.206
			c-6.403,0-13.302-5.456-12.221-11.643c-1.428,1.06-3.194,1.534-5.033,1.534c-6.174,0-13.155-5.346-11.256-11.551
			c-1.501,1.15-3.16,1.62-4.819,1.62c-6.135,0-12.233-6.54-9.508-10.425l6.561-9.633c1.066-1.748,2.643-2.467,4.363-2.467
			c4.445,0,9.803,4.805,9.252,8.891c2.759-4.561,5.587-8.184,9.073-8.891c0.624-0.115,1.23-0.17,1.839-0.17
			c5.925,0,11.201,5.547,11.024,10.01c2.226-3.714,5.301-5.15,8.357-5.15c6.777,0,13.542,7.051,11.329,12.117
			c1.215-1.133,2.779-1.639,4.424-1.639C114.652,169.613,121.247,175.757,116.979,182.809z M167.908,159.523
			c0.548-1.961,0.683-3.909,0.378-5.729c4.731-0.805,8.951-4.354,10.649-9.164c1.748-4.945,0.384-9.999-3.562-13.165l-0.476-0.335
			c-0.268-0.141-27.194-15.059-52.744-30.793l-7.112,0.256c-1.79,0.84-6.686,3.301-7.331,5.626
			c-0.779,2.851-4.521,16.453-6.232,23.065c-0.447,1.754-2.25,2.484-4.618,2.484c-6.622,0-17.723-5.662-16.666-10.802
			c1.446-6.99,4.457-23.261,5.778-27.992c1.321-4.728,22.877-17.016,26.854-17.016c3.836,0,32.881,20.502,40.176,20.502
			c0.244,0,0.469-0.024,0.67-0.076c5.931-1.507,36.291-9.265,36.291-9.265l10.23,63.355L167.908,159.523z"/>
	</g>
</g>
<g>
</g>
<g>
</g>
<g>
</g>
<g>
</g>
<g>
</g>
<g>
</g>
<g>
</g>
<g>
</g>
<g>
</g>
<g>
</g>
<g>
</g>
<g>
</g>
<g>
</g>
<g>
</g>
<g>
</g>
</svg>
